<?xml version="1.0" encoding="UTF-8" standalone="no"?>
<!DOCTYPE svg PUBLIC "-//W3C//DTD SVG 1.1//EN" "http://www.w3.org/Graphics/SVG/1.1/DTD/svg11.dtd">
<svg width="100%" height="100%" viewBox="0 0 153 85" version="1.1" xmlns="http://www.w3.org/2000/svg" xmlns:xlink="http://www.w3.org/1999/xlink" xml:space="preserve" xmlns:serif="http://www.serif.com/" style="fill-rule:evenodd;clip-rule:evenodd;stroke-linejoin:round;stroke-miterlimit:2;">
    <g transform="matrix(1,0,0,1,-89.6875,0.00195312)">
        <g transform="matrix(1.25,0,0,-1.25,0,84.8125)">
            <g id="path5078" transform="matrix(0.8,0,0,-0.8,0,67.85)">
                <path d="M165.748,-0.002C123.739,-0.002 89.688,18.983 89.688,42.4C89.688,55.668 100.609,67.502 117.709,75.275C109.628,69.788 104.306,62.302 103.125,53.416C100.44,33.23 119.955,12.596 148.273,3.801C133.586,10.466 123.35,25.228 123.35,42.4C123.35,65.618 141.998,84.446 165.123,84.783C165.086,84.788 165.036,84.798 164.986,84.803C165.249,84.803 165.498,84.813 165.748,84.813C207.761,84.813 241.824,65.828 241.824,42.4C241.824,29.139 230.887,17.303 213.787,9.529L214.537,10.051L215.273,10.582L215.986,11.125L216.686,11.68L217.373,12.246L218.037,12.824L218.686,13.412L219.311,14.012L219.924,14.621L220.512,15.242L221.086,15.873L221.648,16.516L222.186,17.168L222.699,17.83L223.199,18.502L223.674,19.186L224.123,19.879L224.561,20.582L224.986,21.295L225.373,22.018L225.748,22.748L226.1,23.488L226.436,24.238L226.736,24.998L227.023,25.768L227.287,26.545L227.537,27.332L227.748,28.127L227.936,28.932L228.111,29.744L228.262,30.564L228.387,31.395C231.062,51.585 211.549,72.22 183.236,81.014C197.924,74.349 208.162,59.588 208.162,42.4C208.162,19.198 189.512,0.374 166.387,0.033C166.437,0.028 166.487,0.018 166.537,0.008C166.275,0.008 166.011,-0.002 165.748,-0.002ZM152.5,11.313C160.317,11.313 166.75,17.745 166.75,25.562L166.75,25.563C166.75,33.38 160.317,39.813 152.5,39.813C144.683,39.813 138.25,33.38 138.25,25.563L138.25,25.562C138.25,17.745 144.683,11.313 152.5,11.312Z" style="fill:white;fill-rule:nonzero;"/>
            </g>
        </g>
    </g>
</svg>
